<svg xmlns="http://www.w3.org/2000/svg" xmlns:xlink="http://www.w3.org/1999/xlink" width="500" zoomAndPan="magnify" viewBox="0 0 375 374.999991" height="500" preserveAspectRatio="xMidYMid meet" version="1.0"><defs><filter x="0%" y="0%" width="100%" height="100%" id="d775d44100"><feColorMatrix values="0 0 0 0 1 0 0 0 0 1 0 0 0 0 1 0 0 0 1 0" color-interpolation-filters="sRGB"/></filter><g/><mask id="d9d9c17c2f"><g filter="url(#d775d44100)"><rect x="-37.5" width="450" fill="#000000" y="-37.499999" height="449.999989" fill-opacity="0.96"/></g></mask><clipPath id="bca5223ba1"><rect x="0" width="39" y="0" height="74"/></clipPath><clipPath id="b43c8054c5"><path d="M 201.585938 177 L 221 177 L 221 195.519531 L 201.585938 195.519531 Z M 201.585938 177 " clip-rule="nonzero"/></clipPath><clipPath id="fe6a07a997"><path d="M 215 159.519531 L 229 159.519531 L 229 186 L 215 186 Z M 215 159.519531 " clip-rule="nonzero"/></clipPath><clipPath id="d9ab3b9d3a"><path d="M 224 177 L 243 177 L 243 195.519531 L 224 195.519531 Z M 224 177 " clip-rule="nonzero"/></clipPath></defs><g mask="url(#d9d9c17c2f)"><g transform="matrix(1, 0, 0, 1, 93, 140)"><g clip-path="url(#bca5223ba1)"><g fill="#84a89f" fill-opacity="1"><g transform="translate(0.332898, 58.055944)"><g><path d="M 36.875 -16.1875 C 36.875 -16.113281 36.816406 -15.175781 36.703125 -13.375 L 13.078125 -13.375 C 13.554688 -11.695312 14.484375 -10.40625 15.859375 -9.5 C 17.242188 -8.601562 18.972656 -8.15625 21.046875 -8.15625 C 22.609375 -8.15625 23.957031 -8.375 25.09375 -8.8125 C 26.238281 -9.25 27.390625 -9.96875 28.546875 -10.96875 L 34.546875 -4.734375 C 31.378906 -1.210938 26.757812 0.546875 20.6875 0.546875 C 16.882812 0.546875 13.546875 -0.171875 10.671875 -1.609375 C 7.796875 -3.054688 5.566406 -5.054688 3.984375 -7.609375 C 2.410156 -10.171875 1.625 -13.070312 1.625 -16.3125 C 1.625 -19.507812 2.390625 -22.375 3.921875 -24.90625 C 5.460938 -27.445312 7.59375 -29.4375 10.3125 -30.875 C 13.03125 -32.320312 16.085938 -33.046875 19.484375 -33.046875 C 22.722656 -33.046875 25.660156 -32.375 28.296875 -31.03125 C 30.941406 -29.695312 33.03125 -27.757812 34.5625 -25.21875 C 36.101562 -22.675781 36.875 -19.664062 36.875 -16.1875 Z M 19.546875 -24.953125 C 17.785156 -24.953125 16.316406 -24.453125 15.140625 -23.453125 C 13.960938 -22.453125 13.210938 -21.09375 12.890625 -19.375 L 26.203125 -19.375 C 25.890625 -21.09375 25.140625 -22.453125 23.953125 -23.453125 C 22.773438 -24.453125 21.304688 -24.953125 19.546875 -24.953125 Z M 19.546875 -24.953125 "/></g></g></g></g></g></g><g fill="#536963" fill-opacity="1"><g transform="translate(127.720587, 198.055943)"><g><path d="M 19.90625 0.484375 C 16.46875 0.484375 13.378906 -0.222656 10.640625 -1.640625 C 7.898438 -3.066406 5.757812 -5.035156 4.21875 -7.546875 C 2.6875 -10.066406 1.921875 -12.925781 1.921875 -16.125 C 1.921875 -19.320312 2.6875 -22.179688 4.21875 -24.703125 C 5.757812 -27.222656 7.898438 -29.191406 10.640625 -30.609375 C 13.378906 -32.035156 16.46875 -32.75 19.90625 -32.75 C 23.300781 -32.75 26.269531 -32.035156 28.8125 -30.609375 C 31.351562 -29.191406 33.203125 -27.164062 34.359375 -24.53125 L 27.109375 -20.625 C 25.429688 -23.582031 23.007812 -25.0625 19.84375 -25.0625 C 17.40625 -25.0625 15.382812 -24.257812 13.78125 -22.65625 C 12.1875 -21.0625 11.390625 -18.882812 11.390625 -16.125 C 11.390625 -13.375 12.1875 -11.195312 13.78125 -9.59375 C 15.382812 -8 17.40625 -7.203125 19.84375 -7.203125 C 23.039062 -7.203125 25.460938 -8.679688 27.109375 -11.640625 L 34.359375 -7.671875 C 33.203125 -5.117188 31.351562 -3.117188 28.8125 -1.671875 C 26.269531 -0.234375 23.300781 0.484375 19.90625 0.484375 Z M 19.90625 0.484375 "/></g></g></g><g fill="#536963" fill-opacity="1"><g transform="translate(158.301702, 198.055943)"><g><path d="M 19.671875 0.484375 C 16.273438 0.484375 13.226562 -0.222656 10.53125 -1.640625 C 7.832031 -3.066406 5.722656 -5.035156 4.203125 -7.546875 C 2.679688 -10.066406 1.921875 -12.925781 1.921875 -16.125 C 1.921875 -19.320312 2.679688 -22.179688 4.203125 -24.703125 C 5.722656 -27.222656 7.832031 -29.191406 10.53125 -30.609375 C 13.226562 -32.035156 16.273438 -32.75 19.671875 -32.75 C 23.066406 -32.75 26.101562 -32.035156 28.78125 -30.609375 C 31.457031 -29.191406 33.554688 -27.222656 35.078125 -24.703125 C 36.597656 -22.179688 37.359375 -19.320312 37.359375 -16.125 C 37.359375 -12.925781 36.597656 -10.066406 35.078125 -7.546875 C 33.554688 -5.035156 31.457031 -3.066406 28.78125 -1.640625 C 26.101562 -0.222656 23.066406 0.484375 19.671875 0.484375 Z M 19.671875 -7.203125 C 22.066406 -7.203125 24.035156 -8.007812 25.578125 -9.625 C 27.117188 -11.238281 27.890625 -13.40625 27.890625 -16.125 C 27.890625 -18.84375 27.117188 -21.007812 25.578125 -22.625 C 24.035156 -24.25 22.066406 -25.0625 19.671875 -25.0625 C 17.273438 -25.0625 15.296875 -24.25 13.734375 -22.625 C 12.171875 -21.007812 11.390625 -18.84375 11.390625 -16.125 C 11.390625 -13.40625 12.171875 -11.238281 13.734375 -9.625 C 15.296875 -8.007812 17.273438 -7.203125 19.671875 -7.203125 Z M 19.671875 -7.203125 "/></g></g></g><path fill="#84a89f" d="M 202.945312 177.988281 C 202.945312 177.988281 219.09375 176.882812 219.207031 194.25 C 201.839844 194.136719 202.945312 177.988281 202.945312 177.988281 Z M 202.945312 177.988281 " fill-opacity="1" fill-rule="nonzero"/><g clip-path="url(#b43c8054c5)"><path fill="#84a89f" d="M 220.152344 195.195312 L 219.199219 195.1875 C 213.597656 195.152344 209.242188 193.5 206.25 190.277344 C 201.566406 185.230469 201.992188 178.21875 202.011719 177.925781 L 202.066406 177.109375 L 202.882812 177.054688 C 202.882812 177.054688 203.113281 177.035156 203.519531 177.035156 C 206.277344 177.035156 220.039062 177.867188 220.144531 194.242188 Z M 203.878906 178.917969 C 203.929688 180.832031 204.40625 185.539062 207.636719 189.011719 C 210.09375 191.648438 213.65625 193.085938 218.242188 193.285156 C 217.679688 180.414062 207.582031 178.996094 203.878906 178.917969 Z M 203.878906 178.917969 " fill-opacity="1" fill-rule="nonzero"/></g><path fill="#84a89f" d="M 222.183594 160.902344 C 222.183594 160.902344 234.382812 171.539062 222.183594 183.894531 C 209.980469 171.539062 222.183594 160.902344 222.183594 160.902344 Z M 222.183594 160.902344 " fill-opacity="1" fill-rule="nonzero"/><g clip-path="url(#fe6a07a997)"><path fill="#84a89f" d="M 222.183594 185.230469 L 221.515625 184.554688 C 217.578125 180.570312 215.667969 176.320312 215.832031 171.925781 C 216.089844 165.046875 221.34375 160.386719 221.566406 160.195312 L 222.183594 159.65625 L 222.800781 160.195312 C 223.023438 160.386719 228.277344 165.046875 228.535156 171.925781 C 228.699219 176.320312 226.785156 180.570312 222.851562 184.554688 Z M 222.183594 162.21875 C 220.863281 163.613281 217.875 167.273438 217.707031 172.011719 C 217.578125 175.613281 219.082031 179.148438 222.183594 182.535156 C 225.28125 179.148438 226.789062 175.613281 226.660156 172.011719 C 226.488281 167.273438 223.503906 163.613281 222.183594 162.21875 Z M 222.183594 162.21875 " fill-opacity="1" fill-rule="nonzero"/></g><path fill="#84a89f" d="M 241.871094 177.988281 C 241.871094 177.988281 225.726562 176.882812 225.613281 194.25 C 242.980469 194.136719 241.871094 177.988281 241.871094 177.988281 Z M 241.871094 177.988281 " fill-opacity="1" fill-rule="nonzero"/><g clip-path="url(#d9ab3b9d3a)"><path fill="#84a89f" d="M 224.667969 195.195312 L 224.675781 194.242188 C 224.78125 177.867188 238.542969 177.035156 241.300781 177.035156 C 241.707031 177.035156 241.9375 177.054688 241.9375 177.054688 L 242.75 177.109375 L 242.808594 177.925781 C 242.828125 178.21875 243.253906 185.230469 238.570312 190.277344 C 235.578125 193.5 231.222656 195.152344 225.617188 195.1875 Z M 240.945312 178.917969 C 237.238281 178.996094 227.140625 180.410156 226.574219 193.285156 C 231.171875 193.085938 234.738281 191.644531 237.191406 189 C 240.425781 185.515625 240.894531 180.828125 240.945312 178.917969 Z M 240.945312 178.917969 " fill-opacity="1" fill-rule="nonzero"/></g><g fill="#536963" fill-opacity="1"><g transform="translate(167.343568, 233.973911)"><g><path d="M 52.234375 -31.546875 L 40.296875 0 L 36.28125 0 L 26.328125 -25.84375 L 16.375 0 L 12.359375 0 L 0.484375 -31.546875 L 4.5625 -31.546875 L 14.453125 -4.734375 L 24.59375 -31.546875 L 28.25 -31.546875 L 38.3125 -4.734375 L 48.328125 -31.546875 Z M 52.234375 -31.546875 "/></g></g></g><g fill="#536963" fill-opacity="1"><g transform="translate(215.194571, 233.973911)"><g/></g></g><g fill="#536963" fill-opacity="1"><g transform="translate(226.04724, 233.973911)"><g><path d="M 14.390625 0.296875 C 11.828125 0.296875 9.375 -0.0703125 7.03125 -0.8125 C 4.695312 -1.550781 2.875 -2.476562 1.5625 -3.59375 L 3.484375 -6.953125 C 4.796875 -5.910156 6.453125 -5.0625 8.453125 -4.40625 C 10.453125 -3.75 12.53125 -3.421875 14.6875 -3.421875 C 17.570312 -3.421875 19.703125 -3.867188 21.078125 -4.765625 C 22.453125 -5.660156 23.140625 -6.929688 23.140625 -8.578125 C 23.140625 -9.734375 22.757812 -10.640625 22 -11.296875 C 21.25 -11.960938 20.289062 -12.460938 19.125 -12.796875 C 17.96875 -13.140625 16.429688 -13.472656 14.515625 -13.796875 C 11.953125 -14.273438 9.890625 -14.765625 8.328125 -15.265625 C 6.773438 -15.765625 5.445312 -16.613281 4.34375 -17.8125 C 3.25 -19.007812 2.703125 -20.664062 2.703125 -22.78125 C 2.703125 -25.425781 3.800781 -27.585938 6 -29.265625 C 8.195312 -30.941406 11.253906 -31.78125 15.171875 -31.78125 C 17.210938 -31.78125 19.25 -31.507812 21.28125 -30.96875 C 23.320312 -30.4375 25.003906 -29.726562 26.328125 -28.84375 L 24.46875 -25.421875 C 21.863281 -27.222656 18.765625 -28.125 15.171875 -28.125 C 12.453125 -28.125 10.398438 -27.644531 9.015625 -26.6875 C 7.640625 -25.726562 6.953125 -24.46875 6.953125 -22.90625 C 6.953125 -21.707031 7.34375 -20.75 8.125 -20.03125 C 8.90625 -19.3125 9.875 -18.78125 11.03125 -18.4375 C 12.1875 -18.101562 13.785156 -17.753906 15.828125 -17.390625 C 18.347656 -16.910156 20.367188 -16.429688 21.890625 -15.953125 C 23.410156 -15.472656 24.707031 -14.648438 25.78125 -13.484375 C 26.863281 -12.328125 27.40625 -10.734375 27.40625 -8.703125 C 27.40625 -5.941406 26.253906 -3.75 23.953125 -2.125 C 21.660156 -0.507812 18.472656 0.296875 14.390625 0.296875 Z M 14.390625 0.296875 "/></g></g></g><g fill="#536963" fill-opacity="1"><g transform="translate(250.511932, 233.973911)"><g><path d="M 33.40625 -14.453125 L 7.015625 -14.453125 C 7.253906 -11.171875 8.515625 -8.519531 10.796875 -6.5 C 13.078125 -4.488281 15.957031 -3.484375 19.4375 -3.484375 C 21.394531 -3.484375 23.191406 -3.832031 24.828125 -4.53125 C 26.460938 -5.226562 27.878906 -6.253906 29.078125 -7.609375 L 31.484375 -4.859375 C 30.085938 -3.179688 28.335938 -1.898438 26.234375 -1.015625 C 24.140625 -0.140625 21.832031 0.296875 19.3125 0.296875 C 16.070312 0.296875 13.203125 -0.390625 10.703125 -1.765625 C 8.203125 -3.148438 6.253906 -5.0625 4.859375 -7.5 C 3.460938 -9.9375 2.765625 -12.691406 2.765625 -15.765625 C 2.765625 -18.847656 3.429688 -21.609375 4.765625 -24.046875 C 6.109375 -26.484375 7.945312 -28.378906 10.28125 -29.734375 C 12.625 -31.097656 15.253906 -31.78125 18.171875 -31.78125 C 21.085938 -31.78125 23.703125 -31.097656 26.015625 -29.734375 C 28.335938 -28.378906 30.160156 -26.492188 31.484375 -24.078125 C 32.804688 -21.660156 33.46875 -18.890625 33.46875 -15.765625 Z M 18.171875 -28.125 C 15.128906 -28.125 12.578125 -27.15625 10.515625 -25.21875 C 8.460938 -23.28125 7.296875 -20.75 7.015625 -17.625 L 29.390625 -17.625 C 29.109375 -20.75 27.9375 -23.28125 25.875 -25.21875 C 23.8125 -27.15625 21.242188 -28.125 18.171875 -28.125 Z M 18.171875 -28.125 "/></g></g></g><g fill="#84a89f" fill-opacity="1"><g transform="translate(216.782085, 232.483578)"><g><path d="M 4.171875 -31.203125 L 7.15625 -31.203125 L 7.15625 0 L 4.171875 0 Z M 4.171875 -31.203125 "/></g></g></g></svg>